<svg height="512pt" viewBox="0 -94 512 512" width="512pt" xmlns="http://www.w3.org/2000/svg"><path d="m256 0c-141.449219 0-256 114.480469-256 256v30.117188c0 20.757812 16.886719 37.648437 37.648438 37.648437h436.703124c20.761719 0 37.648438-16.890625 37.648438-37.648437v-30.117188c0-141.457031-114.484375-256-256-256zm240.941406 286.117188c0 12.457031-10.132812 22.589843-22.589844 22.589843h-436.703124c-12.457032 0-22.589844-10.132812-22.589844-22.589843v-30.117188c0-132.855469 108.085937-240.941406 240.941406-240.941406s240.941406 108.085937 240.941406 240.941406zm0 0"/><path d="m256.019531 52.707031h-.039062c-34.585938 0-69.617188 8.734375-101.617188 27.277344-3.539062 2.058594-4.859375 6.613281-2.742187 10.296875.023437.042969.054687.078125.078125.117188l68.679687 118.953124-83.496094-48.207031c-5.226562-3.015625-11.316406-3.820312-17.140624-2.257812-5.828126 1.5625-10.699219 5.300781-13.714844 10.523437-6.226563 10.785156-2.519532 24.628906 8.265625 30.855469l83.492187 48.203125h-129.871094c2.136719-54.160156 27.710938-104.839844 70.152344-139.070312 3.234375-2.601563 3.738282-7.351563 1.136719-10.582032-2.628906-3.273437-7.386719-3.734375-10.589844-1.136718-47.871093 38.546874-75.90625 96.464843-75.90625 158.320312 0 1.988281.800781 3.925781 2.207031 5.320312 1.394532 1.40625 3.332032 2.210938 5.320313 2.210938h158.875c3.5 17.160156 18.710937 30.117188 36.890625 30.117188s33.390625-12.957032 36.890625-30.117188h158.875c4.160156 0 7.527344-3.371094 7.527344-7.53125 0-111.480469-90.6875-203.292969-203.273438-203.292969zm-35.722656 191.375-98.472656-56.855469c-1.742188-1.007812-2.988281-2.628906-3.511719-4.574218-.519531-1.941406-.253906-3.96875.753906-5.710938 1.003906-1.742187 2.628906-2.988281 4.570313-3.507812 1.945312-.519532 3.972656-.253906 5.714843.75l98.492188 56.867187c-3.332031 3.75-5.917969 8.171875-7.546875 13.03125zm35.703125 34.507813c-12.453125 0-22.589844-10.136719-22.589844-22.589844s10.136719-22.589844 22.589844-22.589844 22.589844 10.136719 22.589844 22.589844-10.136719 22.589844-22.589844 22.589844zm188.082031-30.121094h-151.191406c-3.558594-17.457031-19.027344-30.117188-36.890625-30.117188-4.164062 0-8.167969.691407-11.914062 1.945313l-75.585938-130.917969c26.804688-14.144531 57.050781-21.613281 87.5-21.613281s60.695312 7.46875 87.5 21.613281l-63.90625 110.691406c-2.074219 3.585938-.871094 8.195313 2.757812 10.28125 3.679688 2.125 8.253907.761719 10.292969-2.75l63.875-110.660156c52.160157 33.097656 85.070313 90.027344 87.5625 151.527344zm0 0"/></svg>