<svg width="400" height="400" viewBox="0 0 400 400" fill="none" xmlns="http://www.w3.org/2000/svg">
<circle cx="200" cy="203" r="142.5" stroke="black" stroke-width="15"/>
<path d="M132.172 262.113C124.297 253.887 118.039 244.148 113.398 232.898C108.758 221.578 106.438 209.906 106.438 197.883C106.438 185.789 108.863 174.293 113.715 163.395C118.637 152.426 125.105 142.969 133.121 135.023C141.207 127.008 150.699 120.609 161.598 115.828C172.566 111.047 183.43 108.656 194.188 108.656C204.945 108.656 215 110.062 224.352 112.875C242.844 118.43 258.242 128.801 270.547 143.988C282.922 159.105 289.109 176.895 289.109 197.355C289.109 211.488 286.156 224.848 280.25 237.434C274.414 250.02 266.117 260.566 255.359 269.074C259.578 274.98 265.062 278.496 271.812 279.621C274.344 280.043 276.98 279.586 279.723 278.25C282.465 276.914 284.082 276.246 284.574 276.246C285.137 276.246 285.875 276.703 286.789 277.617C287.703 278.461 288.266 279.234 288.477 279.938C288.758 280.57 287.281 283.453 284.047 288.586C278.141 297.867 274.625 302.684 273.5 303.035C273.008 303.176 270.652 302.473 266.434 300.926C262.285 299.449 257.398 296.637 251.773 292.488C246.219 288.34 241.965 283.98 239.012 279.41C225.793 285.738 212.152 288.902 198.09 288.902C184.098 288.902 171.582 286.477 160.543 281.625C149.504 276.773 140.047 270.27 132.172 262.113ZM176.363 267.07C183.254 269.812 190.004 271.184 196.613 271.184C219.113 271.184 237.008 264.609 250.297 251.461C263.656 238.242 270.336 220.523 270.336 198.305C270.336 190.641 268.367 182.59 264.43 174.152C260.562 165.715 255.359 158.016 248.82 151.055C242.281 144.023 234.266 138.223 224.773 133.652C215.352 129.082 204.664 126.797 192.711 126.797C180.758 126.797 169.473 129.82 158.855 135.867C148.238 141.914 140.047 150.281 134.281 160.969C128.516 171.656 125.633 184.066 125.633 198.199C125.633 212.262 130.766 225.938 141.031 239.227C151.367 252.516 163.145 261.797 176.363 267.07Z" fill="black"/>
</svg>
